<svg width="13" height="12" viewBox="0 0 13 12" fill="none" xmlns="http://www.w3.org/2000/svg">
<path d="M1.05405 4.8C0.470811 4.8 0 5.336 0 6C0 6.664 0.470811 7.2 1.05405 7.2C1.6373 7.2 2.10811 6.664 2.10811 6C2.10811 5.336 1.6373 4.8 1.05405 4.8ZM1.05405 0C0.470811 0 0 0.536 0 1.2C0 1.864 0.470811 2.4 1.05405 2.4C1.6373 2.4 2.10811 1.864 2.10811 1.2C2.10811 0.536 1.6373 0 1.05405 0ZM1.05405 9.6C0.470811 9.6 0 10.144 0 10.8C0 11.456 0.477838 12 1.05405 12C1.63027 12 2.10811 11.456 2.10811 10.8C2.10811 10.144 1.6373 9.6 1.05405 9.6ZM3.16216 11.6H13V10H3.16216V11.6ZM3.16216 6.8H13V5.2H3.16216V6.8ZM3.16216 0.4V2H13V0.4H3.16216Z" fill="black"/>
</svg>
